<svg xmlns="http://www.w3.org/2000/svg" viewBox="0 0 360 280" role="img" aria-label="Komponent görseli">
  <rect width="360" height="280" rx="30" fill="#eef4ef"/>
  <g fill="none" stroke="#267052" stroke-width="9" stroke-linecap="round" stroke-linejoin="round">
    <rect x="102" y="62" width="156" height="156" rx="22" fill="#d9f99d"/>
    <path d="M132 40v22m32-22v22m32-22v22m32-22v22M132 218v22m32-22v22m32-22v22m32-22v22M80 92h22m-22 32h22m-22 32h22m-22 32h22m156-96h22m-22 32h22m-22 32h22m-22 32h22"/>
    <circle cx="180" cy="140" r="42" fill="#fff"/>
    <path d="m160 140 14 14 28-31"/>
  </g>
</svg>
